<svg width="50" height="50" viewBox="0 0 50 50" fill="none" xmlns="http://www.w3.org/2000/svg">
<path d="M45 0H5C2.23858 0 0 2.23858 0 5V45C0 47.7614 2.23858 50 5 50H45C47.7614 50 50 47.7614 50 45V5C50 2.23858 47.7614 0 45 0Z" fill="#AB47BC"/>
<path d="M33.0006 19.4001L25.4005 25.5121L33.0006 31.4001V19.4001ZM13.32 35.2402L9 32.5202V18.12L13.8 16.52L20.68 21.8481L34.6 9L41 13.0001V37.8L33 41L20.744 29.256L13.32 35.2399V35.2402ZM13.8 28.1999L16.7761 25.4478L13.8 22.5998V28.1999Z" fill="white"/>
</svg>
