<svg width="445" height="445" viewBox="0 0 445 445" fill="none" xmlns="http://www.w3.org/2000/svg">
<path d="M16.1226 321.147C16.1226 304.33 29.7246 290.728 46.5425 290.728H315.759C332.533 290.728 346.179 304.33 346.179 321.147V432.137C346.179 436.96 342.268 440.828 337.487 440.828H24.814C19.9902 440.828 16.1226 436.96 16.1226 432.137V321.147Z" fill="#1F60B3"/>
<path d="M147.971 236.189H216.72V259.004C216.72 259.004 216.068 265.131 228.845 269.434C235.276 271.563 252.225 275.735 265.175 278.777C271.215 280.167 56.3638 289.989 111.815 275.735C125.113 271.65 132.414 271.085 138.498 269.042C148.319 265.696 147.971 259.004 147.971 259.004V236.189Z" fill="#FFC5AA"/>
<path d="M170.612 236.189H216.72V259.004C216.72 259.004 216.068 265.131 228.845 269.434C235.276 271.563 252.225 275.735 265.175 278.777C271.215 280.167 170.656 290.467 170.656 290.467L170.612 236.189Z" fill="#EDB59B"/>
<path d="M50.106 434.918C50.106 432.093 52.3657 429.79 55.2339 429.79H307.067C309.892 429.79 312.195 432.093 312.195 434.918C312.195 437.743 309.892 440.046 307.067 440.046H55.2339C52.3657 440.046 50.106 437.743 50.106 434.918Z" fill="#CDD6DF"/>
<path d="M52.4961 285.991C52.4961 280.298 57.2329 275.691 63.0127 275.691H295.986C301.809 275.691 306.502 280.298 306.502 285.991L299.332 419.621C299.332 425.27 294.639 429.877 288.815 429.877H71.1392C65.3594 429.877 60.6226 425.27 60.6226 419.621L52.4961 285.991Z" fill="#CDD6DF"/>
<path d="M52.4961 285.991C52.4961 280.298 57.2329 275.691 63.0127 275.691H253.528C259.352 275.691 264.045 280.298 264.045 285.991L256.874 419.621C256.527 425.401 256.266 428.052 256.092 429.877H71.1392C65.3594 429.877 60.6226 425.27 60.6226 419.621L52.4961 285.991Z" fill="#F2F2F2"/>
<path d="M172.22 372.123C163.312 372.123 156.054 365.039 156.054 356.304C156.054 347.569 163.312 340.486 172.22 340.486C181.172 340.486 188.43 347.569 188.43 356.304C188.43 365.039 181.172 372.123 172.22 372.123Z" fill="white"/>
<path d="M187.952 86.8706C187.952 75.9629 196.991 67.1411 208.159 67.1411H408.931C420.099 67.1411 429.138 75.9629 429.138 86.8706V179.304C429.138 190.211 420.099 199.077 408.931 199.077H358.303C358.303 199.077 305.894 239.492 304.851 240.057C293.552 243.881 297.029 232.017 297.029 232.017L304.895 199.077H208.159C196.991 199.077 187.952 190.211 187.952 179.304V86.8706Z" fill="#3FAAD7"/>
<path d="M187.952 86.8706C187.952 75.9629 196.991 67.1411 208.159 67.1411L367.386 66.9238C378.554 66.9238 387.593 75.7891 387.593 86.6968V179.13C387.593 190.038 378.554 198.903 367.386 198.903H316.758C316.758 198.903 310.37 208.203 307.545 212.548C305.112 216.242 301.679 213.157 302.461 209.333C303.287 205.508 304.895 199.077 304.895 199.077H208.159C196.991 199.077 187.952 190.211 187.952 179.304V86.8706Z" fill="#4BB9D0"/>
<path d="M96.3877 133.717C96.3877 111.033 102.472 59.4927 125.678 59.4927L239.014 59.9707C262.263 59.9707 268.782 111.293 268.782 133.978C268.782 133.978 276.169 137.976 276.083 144.234C275.996 150.492 273.866 157.401 272.476 168.309C271.085 179.26 255.267 176.001 255.267 176.001C258.787 210.723 221.109 254.702 187.604 254.484H175.871C147.797 254.484 104.601 212.722 109.512 176.001C109.512 176.001 92.8242 179 92.2593 168.439C91.8247 160.487 88.6958 152.143 88.0874 144.234C88.7393 136.194 96.3877 133.717 96.3877 133.717Z" fill="#FFC5AA"/>
<path d="M204.596 68.0972L223.195 66.6196C236.58 66.6196 253.485 65.0117 253.485 111.467C253.485 134.282 254.484 176.783 254.484 176.783C257.961 211.505 220.284 255.484 186.822 255.31H175.045C169.396 255.31 163.138 253.615 156.793 250.617C258.656 153.36 181.346 68.0972 204.596 68.0972Z" fill="#EAAE92"/>
<path d="M140.931 146.798C141.018 145.06 147.189 136.977 152.838 136.89C158.488 136.846 165.441 144.538 165.397 146.276C165.354 148.058 162.095 149.536 159.965 147.015C158.314 145.016 155.402 142.843 152.969 142.756C150.752 142.669 147.754 144.625 146.45 147.015C144.712 150.144 140.888 148.536 140.931 146.798Z" fill="black"/>
<path d="M132.631 121.289C132.5 119.55 133.848 118.029 135.629 117.899L164.702 115.9C166.484 115.813 168.005 117.117 168.135 118.855C168.266 120.593 166.918 122.114 165.137 122.201L136.107 124.2C134.326 124.331 132.761 123.027 132.631 121.289Z" fill="black"/>
<path d="M199.989 146.798C200.076 145.06 206.247 136.977 211.897 136.89C217.546 136.846 224.499 144.538 224.456 146.276C224.412 148.058 221.153 149.536 219.024 147.015C217.329 145.016 214.417 142.843 212.027 142.756C209.811 142.669 206.812 144.625 205.508 147.015C203.77 150.144 199.946 148.536 199.989 146.798Z" fill="black"/>
<path d="M198.425 118.377C198.512 116.639 199.989 115.291 201.771 115.335L230.887 116.248C232.669 116.334 234.06 117.769 234.016 119.507C233.973 121.245 232.452 122.636 230.67 122.592L201.554 121.636C199.772 121.593 198.381 120.159 198.425 118.377Z" fill="black"/>
<path d="M185.388 194.992C177.913 194.166 171.568 195.904 172.307 194.123C172.307 194.123 165.615 190.82 171.264 184.171C177.087 177.348 181.085 158.835 181.085 158.835C181.607 157.575 183.041 156.619 184.388 156.75C185.779 156.836 186.518 158.01 185.996 159.4C185.996 159.4 182.389 178.391 175.523 185.779C168.961 192.862 190.994 193.34 190.994 193.34C190.255 195.774 187.691 196.469 185.388 194.992Z" fill="black"/>
<path d="M158.531 210.028C159.053 208.333 160.53 206.682 162.573 207.855C167.831 216.72 190.516 215.808 190.516 215.808C192.254 216.286 193.21 218.024 192.732 219.719C192.21 221.37 190.429 222.326 188.734 221.848C188.734 221.848 168.744 224.108 159.661 213.244C158.922 212.331 158.183 211.201 158.531 210.028Z" fill="black"/>
<path d="M94.5625 90.2158C94.5625 88.0864 96.2573 76.8311 81.2646 84.4795C81.7427 66.1841 92.7808 50.6265 101.907 41.6743C101.516 36.3726 89.4346 25.9863 100.951 17.4688C101.82 21.4668 106.991 26.2471 109.381 28.2461C123.114 39.8057 126.721 31.1143 124.026 27.9854C120.637 24.0742 116.552 1.25929 132.37 2.38917C130.501 15.5132 142.235 21.6841 150.231 21.6841C150.231 21.6841 179.651 22.6401 213.113 20.4673C261.959 17.2949 269.651 59.2744 270.129 74.5278V102.08C270.129 124.808 270.129 126.329 270.129 134.412C270.129 134.412 260.438 131.196 256.179 137.41C251.182 144.667 245.836 140.018 245.836 140.018V75.1362C245.836 75.1362 196.165 71.1382 183.345 71.1382C170.525 71.1382 118.594 74.8755 118.594 74.8755L118.898 140.018C118.898 140.018 111.771 140.756 108.295 137.367C104.818 133.977 94.5625 134.455 94.5625 134.455C94.5625 126.937 94.5625 124.808 94.5625 102.08V90.2158Z" fill="#402A0F"/>
<g clip-path="url(#clip0_3113_2)">
<path d="M321.031 148.623H330.215L315.875 134.311L330.157 120.057H321.06L306.691 134.311L321.031 148.623ZM344.829 148.623H352.507L363.806 111.279H356.157L344.829 148.623ZM378.417 148.623H387.601L401.942 134.311L387.572 120.057H378.475L392.758 134.311L378.417 148.623Z" fill="white"/>
</g>
<defs>
<clipPath id="clip0_3113_2">
<rect width="95.6055" height="37.373" fill="white" transform="translate(306.372 111.25)"/>
</clipPath>
</defs>
</svg>
